/* XPM */
static char *dd63bc99ed5749b5cf2114f9f2156a6dcGCptwH7Oh4l6Kj8[] = {
/* columns rows colors chars-per-pixel */
"32 32 11 1 ",
"  c #FFAD5D",
". c #FFAE5D",
"X c #FEAA5C",
"o c #FAA358",
"O c #FDAA5B",
"+ c #FFAF5E",
"@ c #FAA458",
"# c #F08F4E",
"$ c #F59953",
"% c #EE8C4C",
"& c white",
/* pixels */
"                                ",
"                                ",
"                                ",
"                                ",
"                                ",
"                                ",
"                                ",
"                                ",
"                                ",
"                                ",
"                                ",
"                                ",
"                                ",
"                ..              ",
"                ..              ",
"              .XooO             ",
"             .+@##o..           ",
"             X@$%#o..           ",
"           ..o#%$@X             ",
"           ..o##@+.             ",
"             OooX.              ",
"    ..        ..                ",
"    ..        ..                ",
"   OooX.                        ",
" ..o##@+.                       ",
" ..o#%$@X                       ",
"   X@$%#o..                     ",
"   .+@##o..                     ",
"    .XooO                       ",
"      ..                        ",
"      ..                        ",
"                                "
};
