/* XPM */
static char *_cb0b0b821ec47d3eee7c4f796fb698fv8CWJ7mP6M6n07VG[] = {
/* columns rows colors chars-per-pixel */
"32 32 139 2 ",
"   c #061317",
".  c #081317",
"X  c #0C1619",
"o  c #161E1D",
"O  c #1A1F1D",
"+  c #342E23",
"@  c #392F23",
"#  c #3C3224",
"$  c #333428",
"%  c #3C3728",
"&  c #3E3B2B",
"*  c #423626",
"=  c #463826",
"-  c #423728",
";  c #443B2A",
":  c #493B2A",
">  c #45402D",
",  c #5C462E",
"<  c #434336",
"1  c #5D4C30",
"2  c #60472D",
"3  c #63492F",
"4  c #634E32",
"5  c #635235",
"6  c #695436",
"7  c #6C5C3C",
"8  c #745635",
"9  c #765837",
"0  c #795A37",
"q  c #7A5A38",
"w  c #6F613E",
"e  c #454B49",
"r  c #615A4F",
"t  c #645C50",
"y  c #6F6F63",
"u  c #825A36",
"i  c #8B5F37",
"p  c #8C6138",
"a  c #916339",
"s  c #A56E3D",
"d  c #A7703E",
"f  c #A8703F",
"g  c #8C784B",
"h  c #9B7F4C",
"j  c #A37443",
"k  c #AB7440",
"l  c #A77846",
"z  c #AB7945",
"x  c #A4794D",
"c  c #B37641",
"v  c #B67842",
"b  c #B87942",
"n  c #9C824F",
"m  c #B68048",
"M  c #BA844A",
"N  c #B48E53",
"B  c #B69155",
"V  c #B6985B",
"C  c #BB9A5B",
"Z  c #BCA475",
"A  c #BEA778",
"S  c #CC8447",
"D  c #C2874C",
"F  c #CF8648",
"G  c #C4884C",
"H  c #C98B4E",
"J  c #D08748",
"K  c #D68A49",
"L  c #DB8D4A",
"P  c #D4914F",
"I  c #DE924D",
"U  c #D59351",
"Y  c #DC9652",
"T  c #DD9953",
"R  c #DE9B5B",
"E  c #E1914D",
"W  c #E19A54",
"Q  c #C6A25D",
"!  c #CAA55F",
"~  c #DCA75F",
"^  c #E4A35D",
"/  c #E6AA5E",
"(  c #EAA85D",
")  c #F4A65A",
"_  c #FFAD5D",
"`  c #FFB15F",
"'  c #C6A461",
"]  c #C9A561",
"[  c #DEAD61",
"{  c #DFA26E",
"}  c #E3A662",
"|  c #E5A964",
" . c #E9AE61",
".. c #E5B366",
"X. c #EBB666",
"o. c #EEB866",
"O. c #EBB768",
"+. c #E5BB6C",
"@. c #EDB969",
"#. c #FFB460",
"$. c #F1BB6A",
"%. c #E7A770",
"&. c #E5B17E",
"*. c #F3C16E",
"=. c #F2C572",
"-. c #F6C873",
";. c #FCCC75",
":. c #F3CA7B",
">. c #FFD077",
",. c gray64",
"<. c #CDB587",
"1. c #EAB681",
"2. c #C2BDAF",
"3. c #C2BEB0",
"4. c #EFC484",
"5. c #EFC88C",
"6. c #F1C584",
"7. c #F4C886",
"8. c #F4CF8A",
"9. c #F4D18E",
"0. c #F8D28C",
"q. c #F5CD91",
"w. c #F5D393",
"e. c #FCD896",
"r. c #F6D698",
"t. c #F9D798",
"y. c #FCD999",
"u. c #F5DABC",
"i. c #D4D5D4",
"p. c #F8E4C2",
"a. c #FBE8C5",
"s. c #F7E8DB",
"d. c #F2ECDE",
"f. c #FAEBDC",
"g. c #FAEFDE",
"h. c #FCF1DE",
"j. c #FEF2E1",
"k. c #FFF5E2",
"l. c #FFF9E6",
/* pixels */
"_ _ _ _ _ _ _ _ _ _ _ _ _ _ _ _ _ _ _ _ _ _ _ _ _ _ _ _ _ _ _ _ ",
"_ _ _ _ _ _ _ _ _ _ _ _ _ _ _ _ _ _ _ _ _ _ _ _ _ _ _ _ _ _ _ _ ",
"_ _ _ _ ` ` ` ` ` ` ` ` ` ` ` ` _ _ _ _ _ _ _ _ _ _ _ _ _ _ _ _ ",
"_ _ ` ) U D G G D D D D D D D U ) ` _ _ _ _ _ _ _ _ _ _ _ _ _ _ ",
"_ _ ` U 9 ; ; : : : : : : ; - 8 U ` ` _ _ _ _ _ _ _ _ _ _ _ _ _ ",
"` ) U j , @ # # ; > > ; ; ; ; 5 j P ) ` _ _ _ _ _ _ _ _ _ _ _ _ ",
"#.U 8 , i s s k N C C C C C C h 1 8 U #.` _ _ _ _ _ _ _ _ _ _ _ ",
"H l 5 6 M ^ %.1.q.t.t.t.t.y.y.<.y r x U ) _ _ _ _ _ _ _ _ _ _ _ ",
": 6 n ! ..6.u.f.j.k.k.k.k.k.k.d.i.,.t 8 P ` _ _ _ _ _ _ _ _ _ _ ",
". ; B $.o.4.p.k.j.h.h.h.h.h.h.k.l.2.e * D ` _ _ _ _ _ _ _ _ _ _ ",
". - z W W } 4.w.w.w.w.w.w.w.w.t.e.Z < = D ` _ _ _ _ _ _ _ _ _ _ ",
"X - z W T } 4.w.w.w.w.w.w.w.w.t.t.Z < ; D ` _ _ _ _ _ _ _ _ _ _ ",
"X > N $.o.4.p.k.j.h.h.h.h.h.h.k.k.2.e = D ` _ _ ` ` ` ` ` ` _ _ ",
"X > N $.o.4.u.s.g.h.h.h.h.h.h.k.l.3.e = G #.` ) U D D D G U ) _ ",
"X - z W W R { &.5.w.w.w.w.w.w.t.y.A < ; G #.#.U 8 - ; ; ; q U ` ",
"X - z W W Y I } 4.w.w.w.w.8.-.+.! h 1 , j H H l 5 ; > $ o : G ` ",
"X > N $.@.X.X.4.p.j.j.j.j.a.0.Q w 1 a a 3 ; * 5 n C C g $ : G ` ",
"X > B $.@.X.X.4.p.j.j.j.j.p.7.N % # z G 7 & & w ] ;.>.C > : G #.",
"X ; z W W Y Y } 4.w.w.w.w.6.| j @ & N ..' V V ' +.-.;.C ; ; G #.",
". * s I Y T Y } 4.w.w.w.w.6.| m 6 w ' -.-.-.-.-.=.+.] n 6 q U #.",
". # s W  .X.X.4.p.j.j.j.j.p.6.[ Q ' +.=.=.=.=.-.-.' 7 4 l Y ) _ ",
": 3 p M ~ @.X.4.p.k.k.k.k.a.9.=.-.-.=.=.=.=.=.=.=.' 7 5 l Y ) _ ",
"H j 3 4 m W T | 6.r.w.w.w.9.:.=.=.=.=.=.=.=.=.=.=.+.] n 5 0 U ` ",
"#.H : # s L K Y / X.X.X.X.X.X.O.X.@.*.=.=.=.=.=.=.=.*.B & ; D ` ",
"#.G : # s L L L I T T T T T T T T ^ @.=.=.=.=.=.=.$.( z # : G ` ",
"` G : # s L L K K K K K K K K K K Y  .@.@.O.O.O.O. .W s # : G ` ",
"` G ; # s I L K K K K K L L L L L I W W W W T T T W E s # ; G ` ",
"` U 0 , p c F L L L L S c s d f f s s s s c S K L F c p , 0 U ` ",
"_ ) Y j , 2 c I L L L c 3 # * * * * # # # 3 c L E c 2 , j Y ) _ ",
"_ _ ` U 9 , p s s c F c 3 + O X X O + * # 3 c J v p , 9 U ` _ _ ",
"_ _ _ ) U j 3 # # 3 c J b u + . . + u f d c F c 3 , j U ) _ _ _ ",
"_ _ _ ` #.H :     # s E E k = X X = k E E L L s # ; H #.` _ _ _ "
};
