/* XPM */
static char *_45f7b9c0771497cd7350a25f1a049620unmhzGnsrtENsJO[] = {
/* columns rows colors chars-per-pixel */
"32 32 166 2 ",
"   c #060F12",
".  c #081216",
"X  c #0D1619",
"o  c #0F181A",
"O  c #141B1A",
"+  c #191D1C",
"@  c #1F231F",
"#  c #372B1E",
"$  c #1A2226",
"%  c #342D22",
"&  c #392F23",
"*  c #343224",
"=  c #3C3224",
"-  c #3D372F",
";  c #3C3929",
":  c #413526",
">  c #453927",
",  c #483A26",
"<  c #413728",
"1  c #443B2A",
"2  c #493C2A",
"3  c #45412E",
"4  c #49432E",
"5  c #5B462D",
"6  c #5E482F",
"7  c #454333",
"8  c #574830",
"9  c #5D4D32",
"0  c #62472D",
"q  c #63492E",
"w  c #645336",
"e  c #6A5333",
"r  c #6C5D3C",
"t  c #745635",
"y  c #775837",
"u  c #7C5936",
"i  c #7A5A38",
"p  c #6F613D",
"a  c #73633E",
"s  c #363F42",
"d  c #394245",
"f  c #434747",
"g  c #454B4B",
"h  c #444C50",
"j  c #484F52",
"k  c #4A5254",
"l  c #615A4F",
"z  c #645C50",
"x  c #706340",
"c  c #646254",
"v  c #6F6F63",
"b  c #757263",
"n  c #875C36",
"m  c #8A5F38",
"M  c #8D6139",
"N  c #956A3D",
"B  c #A46D3C",
"V  c #AA713F",
"C  c #B1733D",
"Z  c #8C7646",
"A  c #9F7142",
"S  c #947D4D",
"D  c #9A7F4C",
"F  c #A37443",
"G  c #A77846",
"H  c #A67847",
"J  c #AB7945",
"K  c #B37641",
"L  c #B47943",
"P  c #B87942",
"I  c #9B814F",
"U  c #9F8450",
"Y  c #9E8758",
"T  c #9F895A",
"R  c #B9854B",
"E  c #A08450",
"W  c #A18A5A",
"Q  c #B58F54",
"!  c #B79155",
"~  c #BE9557",
"^  c #B69658",
"/  c #BB9B5B",
"(  c #AB8361",
")  c #BBA474",
"_  c #CB8446",
"`  c #C2874B",
"'  c #CE8648",
"]  c #C5894C",
"[  c #CA8C4E",
"{  c #D08748",
"}  c #D68A4A",
"|  c #DB8D4B",
" . c #D3914F",
".. c #DE934E",
"X. c #C79A59",
"o. c #D59351",
"O. c #DB9551",
"+. c #DE9953",
"@. c #E1914C",
"#. c #E69650",
"$. c #E29B54",
"%. c #EA9E55",
"&. c #E19D5D",
"*. c #C5A25F",
"=. c #C8A35F",
"-. c #E3A25B",
";. c #F4A65A",
":. c #FFAD5D",
">. c #FFB15F",
",. c #C6A360",
"<. c #CBA661",
"1. c #CEA963",
"2. c #D1AB64",
"3. c #E3A662",
"4. c #E6AC60",
"5. c #E8AD61",
"6. c #E3B266",
"7. c #EBB666",
"8. c #EEB867",
"9. c #EBB768",
"0. c #E5BB6C",
"q. c #F5B665",
"w. c #FFB460",
"e. c #F2BB6A",
"r. c #E6A771",
"t. c #F0C06B",
"y. c #EFC270",
"u. c #F3C572",
"i. c #F6C873",
"p. c #FBCC75",
"a. c #F6CB7A",
"s. c #FFD077",
"d. c #797E81",
"f. c #989DA0",
"g. c #A4A5A2",
"h. c #A9A9A5",
"j. c #BBB2AA",
"k. c #CDB485",
"l. c #EAB681",
"z. c #C2BCAD",
"x. c #C1BDB0",
"c. c #EFC584",
"v. c #F1C585",
"b. c #F9D48E",
"n. c #F5CD91",
"m. c #F5D393",
"M. c #F9D594",
"N. c #FCD896",
"B. c #FCD998",
"V. c #F7DBBD",
"C. c #C2C6C9",
"Z. c #C6CACC",
"A. c #C9CBCD",
"S. c #CCCFD1",
"D. c #D4D4D2",
"F. c #D6D9DC",
"G. c #F8DEC0",
"H. c #F8E4C2",
"J. c #FFEDC9",
"K. c #EFE8D9",
"L. c #F6ECDD",
"P. c #FDF2DE",
"I. c #DDDFE0",
"U. c #FEF5E1",
"Y. c #FFF9E4",
"T. c #FEFEFF",
/* pixels */
":.:.:.:.:.:.:.:.:.:.:.:.:.:.:.:.>.>.>.>.>.>.>.>.>.>.>.>.:.:.:.:.",
":.:.:.:.:.:.:.:.:.:.:.:.:.:.>.;.o.` ` ] ` ` ] ] ] ] ` o.;.:.:.:.",
":.:.:.:.:.:.:.:.:.:.:.:.:.>.>.o.y , , 2 2 2 2 2 2 2 , y o.>.:.:.",
":.:.:.:.:.:.:.:.:.:.:.:.>.;. .F w 1 1 1 1 3 3 1 = = & 6 F o.;.>.",
":.:.:.:.:.:.:.:.:.:.:.>.w.o.t 9 D / / / / / / Q H B B m 5 t o.w.",
":.:.:.:.:.:.:.:.:.:.:.;.o.H l v k.B.B.M.M.B.B.n.l.r.-.R w w H [ ",
":.:.:.:.:.:.:.:.:.:.>. .t z g.D.L.U.U.U.U.U.U.U.L.V.v.6.=.I w 2 ",
":.:.:.:.:.:.:.:.:.:.>.` : f z.Y.U.P.P.P.P.P.P.U.U.H.c.8.e.! 1 . ",
":.:.:.:.:.:.:.:.:.:.>.` > 7 ) N.M.m.m.m.m.m.m.m.m.c.3.$.$.J < X ",
":.:.:.:.:.:.:.:.:.:.>.` , 7 ) M.M.M.M.M.M.M.m.m.m.c.3.+.$.J > o ",
":.:.:.:.:.:.:.:.:.:.>.` > g z.U.U.U.U.U.U.P.P.U.U.H.c.8.e.Q 3 o ",
":.:.:.:.:.:.:.:.:.>.w.] , k A.T.F.C.C.C.Z.D.K.U.U.H.c.8.e.Q 3 o ",
":.:.:.:.>.>.>.>.>.w.w.] , k S.I.d.g g h j b k.M.M.c.3.+.$.J > o ",
":.:.>.;.o.` ` ` ` ] ] N & d f.h.c 1 1 * O 7 ) b.a.8.-.$.$.J > o ",
":.>.>.o.t > , 2 2 2 2 = + $ s c Y / / Z * g x.J.b.t.8.8.e.Q 3 o ",
">.;.o.F w 1 3 7 7 3 3 3 4 3 1 r <.p.s./ 1 f j.G.v.7.7.8.e.Q 3 o ",
"w.o.t 9 I / / / / / / / / / / =.0.p.p./ 3 - ( r.&.O.+.$.$.J > o ",
"[ H w x 1.y.1./ / <.0.p.p.i.i.i.u.0.<.D 9 0 C | O.+.+.$.$.J < X ",
"2 w E 2.u.2.a 1 1 a 1.p.p.i.i.i.i.,.r 8 M K _ ..4.9.9.8.e.! 1 . ",
". ; S ,.*.W c h h c T <.0.u.u.i.i.,.r w L | | O.4.8.8.6.<.U w 2 ",
"o @ ; 4 4 c g.A.A.g.c p =.i.u.u.u.0.,.~ } | | | O.$.$.R r w H [ ",
"O O o .   j A.T.T.A.h ; ^ i.i.u.u.u.i.8.+.} } } } | | B & , ] w.",
"O O o .   j A.T.T.A.h ; ^ i.i.u.u.u.i.8.+.} } } } | | B & , ] w.",
"O @ & > 1 c g.A.A.g.c p ,.i.i.u.u.u.8.4.O.} } | | ' K M 6 y o.>.",
"o & n L ~ W c h h c T 1.0.u.u.u.u.8.-.o.| } } | | K 0 5 F o.;.:.",
"X : V %.q.X.e # # e X.e.e.8.8.8.8.5.O.} } | | ' K m 5 t o.>.:.:.",
"X = V #.%.o.L B B K  .$.$.$.$.$.$.O.| } } | | K 0 5 A o.;.>.:.:.",
"2 q M B B K { ..| | | _ K B B B B K _ | | ' K m 5 t o.>.>.:.:.:.",
"[ H q & & q P @.| | | K q = = = = q K | @.K 0 5 A o.;.>.:.:.:.:.",
"w.o.i , , q M K _ | | K q % + + % q K { L M 6 y o.>.>.:.:.:.:.:.",
">.;.o.] ] F 6 q K | | ' L u % % u P { K q 6 F o.;.:.:.:.:.:.:.:.",
":.:.>.w.w.] , = B | | | @.V : : V @.@.B = , [ w.>.:.:.:.:.:.:.:."
};
