/* XPM */
static char *cff515753b3043b8808b1426149a7c6aq9zeYXW57aecjt9u[] = {
/* columns rows colors chars-per-pixel */
"32 32 194 2 ",
"   c #0C1416",
".  c #0C1619",
"X  c #0E181A",
"o  c #101717",
"O  c #11191A",
"+  c #1D221C",
"@  c #22231D",
"#  c #28261F",
"$  c #2C2B21",
"%  c #312D23",
"&  c #3C3224",
"*  c #363628",
"=  c #3E3B2A",
"-  c #433626",
";  c #463827",
":  c #4B3A27",
">  c #443B2A",
",  c #4C3C28",
"<  c #523F29",
"1  c #44402D",
"2  c #4B432E",
"3  c #52422C",
"4  c #5C462D",
"5  c #52482F",
"6  c #5E492F",
"7  c #4C4233",
"8  c #454539",
"9  c #534A32",
"0  c #554931",
"q  c #5D5336",
"w  c #5A5239",
"e  c #61472D",
"r  c #644B2F",
"t  c #644C30",
"y  c #6C4F30",
"u  c #645336",
"i  c #6D5534",
"p  c #6F5837",
"a  c #6B5C3A",
"s  c #725232",
"d  c #795533",
"f  c #7B5A36",
"g  c #735B39",
"h  c #6E603C",
"j  c #70613C",
"k  c #494C47",
"l  c #474E50",
"z  c #4D5351",
"x  c #525551",
"c  c #5F5E53",
"v  c #655A4C",
"b  c #725E41",
"n  c #6F614E",
"m  c #766443",
"M  c #7E6B42",
"N  c #73664C",
"B  c #6F6955",
"V  c #666458",
"C  c #726A55",
"Z  c #756F5E",
"A  c #5D6568",
"S  c #716F63",
"D  c #7E766D",
"F  c #845C36",
"G  c #885E37",
"H  c #835E38",
"J  c #876239",
"K  c #89643B",
"L  c #986537",
"P  c #93643A",
"I  c #99673A",
"U  c #976C3F",
"Y  c #9B6A3C",
"T  c #A56E3E",
"R  c #A6703F",
"E  c #A9713F",
"W  c #806E45",
"Q  c #9A6D40",
"!  c #847046",
"~  c #987847",
"^  c #987D4C",
"/  c #82785E",
"(  c #A57647",
")  c #AC7542",
"_  c #AC7C46",
"`  c #AE7E4B",
"'  c #B27641",
"]  c #B67943",
"[  c #BB7C43",
"{  c #B27E48",
"}  c #9D834F",
"|  c #958259",
" . c #A5824B",
".. c #B78048",
"X. c #BC834A",
"o. c #A58953",
"O. c #AB8D54",
"+. c #A88F5B",
"@. c #B48D53",
"#. c #BF8D58",
"$. c #AE9056",
"%. c #AB915C",
"&. c #B59356",
"*. c #B99256",
"=. c #B69759",
"-. c #BA9458",
";. c #BC9B5C",
":. c #BFA267",
">. c #BCA67B",
",. c #C58247",
"<. c #CA8347",
"1. c #C2864A",
"2. c #CE8648",
"3. c #C5894C",
"4. c #CB8C4D",
"5. c #D68A4A",
"6. c #DB8D4B",
"7. c #D1914F",
"8. c #DC904D",
"9. c #CE9150",
"0. c #C39C5B",
"q. c #D39252",
"w. c #DB9652",
"e. c #DD9954",
"r. c #D69D58",
"t. c #E0944E",
"y. c #E19D55",
"u. c #EA9C53",
"i. c #C5A25F",
"p. c #CAA35E",
"a. c #DBA75E",
"s. c #E7A258",
"d. c #EEA258",
"f. c #E8A45A",
"g. c #F5A65A",
"h. c #FAA759",
"j. c #F7A85B",
"k. c #FFAD5D",
"l. c #FFB15F",
"z. c #D19866",
"x. c #C49E7E",
"c. c #D29E72",
"v. c #C7A566",
"b. c #D2AC65",
"n. c #DDAC63",
"m. c #DEB56A",
"M. c #CEAF75",
"N. c #D4A575",
"B. c #E3AE64",
"V. c #E5B064",
"C. c #EBB264",
"Z. c #E7B569",
"A. c #E6BA6C",
"S. c #EABB6C",
"D. c #F0B767",
"F. c #FFB360",
"G. c #F1B968",
"H. c #E8B97B",
"J. c #ECC06F",
"K. c #F2C26F",
"L. c #F3C471",
"P. c #F7C873",
"I. c #F9C974",
"U. c #9D9C95",
"Y. c #A9AAA5",
"T. c #ABACA8",
"R. c #BBB5A5",
"E. c #B6B8B7",
"W. c #BDBEBE",
"Q. c #DEBA83",
"!. c #C7B5A4",
"~. c #E4C58B",
"^. c #ECC688",
"/. c #F3CB8D",
"(. c #F6D79D",
"). c #FBDA9F",
"_. c #C5C4BF",
"`. c #D7CAB0",
"'. c #ECCDAC",
"]. c #FADBA0",
"[. c #F8DEBA",
"{. c #C3C6C7",
"}. c #C6C8C8",
"|. c #DAD3CB",
" X c #D1D4D5",
".X c #E7DDCB",
"XX c #F0DCC9",
"oX c #F4E5CE",
"OX c #F5E9D1",
"+X c #FAECD4",
"@X c #FEF0D7",
"#X c #FEF3DA",
"$X c #F7F8F8",
"%X c white",
/* pixels */
"k.k.k.k.k.k.k.k.k.k.k.k.k.k.k.k.k.k.l.l.l.l.l.l.l.l.l.l.k.k.k.k.",
"k.k.k.k.k.k.k.k.k.k.k.k.k.k.k.k.k.j.w.4.4.4.4.4.4.4.4.w.j.k.k.k.",
"k.k.k.k.k.k.k.k.k.k.k.k.k.k.k.k.l.w.K 6 6 e e t t 6 6 K e.l.k.k.",
"k.k.k.k.k.k.k.k.k.k.k.k.k.k.k.j.w._ p 5 5 5 5 5 , : : y _ w.j.l.",
"k.k.k.k.k.k.k.k.k.k.k.k.k.k.l.w.H i ~ O.O.O.O. .Y L I G y J w.F.",
"k.k.k.k.k.k.k.k.k.k.k.k.k.j.w.` n Z >.~.~.~.~.Q.N.z.q._ p g { q.",
"k.k.k.k.k.k.k.k.k.k.k.k.k.w.J n U._..XOXOXOXOXoXXX'.H.a.-.^ g t ",
"k.k.k.k.k.k.k.k.k.k.k.k.l.3.3 k R.OX+X+X@X@X@X@X@X[.^.C.B.O.5 @ ",
"l.l.l.l.l.k.k.k.k.k.k.k.l.3., 8 >.(.(.(.).].].].]./.B.y.y._ , O ",
"4.4.4.4.4.w.j.l.k.k.k.l.l.1.; 8 >.].).^.M.:.:.v.v.v.r.y.y._ ; O ",
"t t e 4 4 J w.F.l.k.k.l.l.1.; k R.#X#X`./ 9 9 w w W 0.C.D.@.1 O ",
"@ % 1 0 0 g _ 4.4.q.u.h.h.3.r v !.oX|.Y.B 5 0 1 $ 0 *.G.G.@.1 O ",
"O * ! $.$.^ g 4 4 f ,.u.u.5.T ( c.x.D Z | O.$.! * ; _ s.s._ ; O ",
"  > $.S.A.;.m 5 0 g X.y.y.w.7.q.y.#.m N ;.A.S.$.= & R t.t.) ; O ",
"  1 ;.P.L.m.;.O.O.-.n.C.C.V.B.V.D.n.;.;.m.L.P.;.> & T 8.8.R ; O ",
"; u o.b.J.A.0.O.O.;.Z.L.K.K.L.A.p.&.$.0.A.J.b.} 0 4 ' 6.6.T ; O ",
"..Q a W b.b.M 2 2 M b.I.P.P.I.b.M 5 5 M b.b.W u H T <.6.6.T ; O ",
"1.( i a O.%.C x x C +.i.i.i.i.+.B x x C %.O.a i ) 2.5.6.6.E - X ",
"6 g ^ ^ j C U.E.E.U.C q q q q C U.E.E.U.C h ^ @.4.5.5.6.6.E - . ",
"@ 9 =.&.2 z W.$X$XW.x + + + + x W.$X$XW.z 2 $.V.e.5.5.2.[ P 6 ; ",
"O 7 ;.;.1 l {.%X%X}.z   o o   z }.%X%X{.l > =.S.y.5.6.] s y Q { ",
". 1 -.0.a c Y. X XT.V = > > = V T. X XY.c a 0.C.e.5.6.E : 3 X.j.",
". ; ` r.*.| S A A S | O.o.o.O.| S A A S | &.r.e.8.6.6.T - , 3.k.",
". - ) y.f.-.b 7 7 b -.B.n.n.B.-.b 7 7 b -.a.w.6.5.6.6.T & , 3.l.",
". & E t.y.9.) Y Y ) 9.y.y.y.y.9.) Y Y ) 9.e.8.5.5.6.6.T & ; 3.l.",
"- 4 P [ 5.2.) I I T ) ) ) ) ) ) T Y I E 2.6.6.5.5.2.[ P 4 s q.l.",
"{ U r s [ [ s : : , < 3 3 3 3 3 < , : i ] 6.6.6.6.] s t U 3.d.k.",
"g.4.f r I I r : : : : : , , , - $ # & y ] 6.6.6.6.E ; , ..j.k.k.",
"k.d.3.U r e G Y I I I I I Y Y d % $ s E <.6.5.6.6.T & ; 1.k.k.k.",
"k.k.j.3.f e G E [ <.<.[ R Y Y F < 4 T 2.5.6.6.2.[ P 4 s q.l.k.k.",
"k.k.k.d.4.U r y ' 6.6.] s , , e F T ,.5.5.6.6.] s t U 3.d.k.k.k.",
"k.k.k.k.g...3 , E 6.6.) < @ @ , Y 2.5.6.5.6.6.E , 3 ..g.k.k.k.k."
};
