/* XPM */
static char *b3368bf302314b9ae3328331641c71c6g6oWiHKCdainHRaN[] = {
/* columns rows colors chars-per-pixel */
"32 32 150 2 ",
"   c #061519",
".  c #0F1719",
"X  c #0D1A1B",
"o  c #131B1B",
"O  c #1C1D1C",
"+  c #201F1D",
"@  c #21211E",
"#  c #2C351F",
"$  c #30351C",
"%  c #33391D",
"&  c #132526",
"*  c #192726",
"=  c #172921",
"-  c #1C2D24",
";  c #1D2F2F",
":  c #1E3125",
">  c #1D3331",
",  c #223325",
"<  c #253628",
"1  c #3D3326",
"2  c #203432",
"3  c #283F31",
"4  c #243F3E",
"5  c #411D26",
"6  c #463929",
"7  c #4B3C2A",
"8  c #433F30",
"9  c #2C432E",
"0  c #3D4926",
"q  c #34452A",
"w  c #3D4C29",
"e  c #294030",
"r  c #25403D",
"t  c #304930",
"y  c #31453D",
"u  c #345435",
"i  c #395737",
"p  c #395837",
"a  c #3E5E3A",
"s  c #4D511E",
"d  c #424E27",
"f  c #45452F",
"g  c #49472F",
"h  c #5E4127",
"j  c #534927",
"k  c #534928",
"l  c #474730",
"z  c #484630",
"x  c #435E3A",
"c  c #4A5F3E",
"v  c #765637",
"b  c #7A5937",
"n  c #7A5A38",
"m  c #436B3F",
"M  c #516E39",
"N  c #57753D",
"B  c #59773D",
"V  c #5D793A",
"C  c #716D25",
"Z  c #737B2C",
"A  c #264744",
"S  c #2B4A45",
"D  c #2D4D48",
"F  c #2F5143",
"G  c #375945",
"H  c #32564F",
"J  c #355948",
"K  c #355C53",
"L  c #3F6441",
"P  c #3C6453",
"I  c #3E6951",
"U  c #446C40",
"Y  c #486F41",
"T  c #4F6E4A",
"R  c #477144",
"E  c #4A7343",
"W  c #47754F",
"Q  c #48754F",
"!  c #4E7D4D",
"~  c #557347",
"^  c #597C44",
"/  c #51724B",
"(  c #507E4F",
")  c #426E51",
"_  c #457251",
"`  c #497651",
"'  c #AE4D3A",
"]  c #827F24",
"[  c #986B3F",
"{  c #AF2E41",
"}  c #EA364F",
"|  c #9B6E41",
" . c #9D7343",
".. c #A07441",
"X. c #D95445",
"o. c #77802E",
"O. c #79822F",
"+. c #79863B",
"@. c #79923D",
"#. c #53834D",
"$. c #56894E",
"%. c #5B8B4D",
"&. c #4E8050",
"*. c #528250",
"=. c #5A8E50",
"-. c #638644",
";. c #678C46",
":. c #698E45",
">. c #728F40",
",. c #6C9044",
"<. c #689048",
"1. c #848225",
"2. c #8A8727",
"3. c #8E8925",
"4. c #878628",
"5. c #8C8E2F",
"6. c #938327",
"7. c #918328",
"8. c #92952E",
"9. c #9A9D2F",
"0. c #818F35",
"q. c #8B9634",
"w. c #869739",
"e. c #879839",
"r. c #889938",
"t. c #909331",
"y. c #949B32",
"u. c #999E31",
"i. c #AB862E",
"p. c #AC882E",
"a. c #A39C27",
"s. c #B78832",
"d. c #BA8A31",
"f. c #AEA427",
"g. c #A6A22A",
"h. c #ABA428",
"j. c #C4874C",
"k. c #C4884D",
"l. c #C7894D",
"z. c #CA8B4E",
"x. c #D59351",
"c. c #D69351",
"v. c #D89452",
"b. c #F3A65A",
"n. c #F5A75A",
"m. c #F7A85B",
"M. c #FFAD5D",
"N. c #FFB05E",
"B. c #FFB460",
"V. c #FFB561",
/* pixels */
"M.M.M.M.M.M.M.M.M.M.M.M.M.M.M.M.M.M.M.M.M.M.M.M.M.M.M.M.M.M.M.M.",
"M.M.M.M.M.M.M.M.M.M.M.M.M.M.M.M.M.M.M.M.M.M.M.M.M.M.M.M.M.M.M.M.",
"M.M.M.M.M.M.M.M.M.M.M.M.M.M.M.M.M.M.M.M.M.M.M.M.N.N.N.N.N.N.M.M.",
"M.M.M.M.M.M.M.M.M.M.M.M.M.M.M.M.M.M.M.M.M.N.N.n.c.j.k.k.k.c.b.M.",
"M.M.M.M.M.M.M.M.N.N.N.N.N.N.N.N.N.N.N.N.N.N.B.v.b 6 7 7 7 n c.N.",
"M.M.M.M.M.M.N.b.c.j.k.k.k.k.k.k.k.k.k.k.k.k.k. .f : : = X 7 k.B.",
"M.M.M.M.M.N.N.v.v 6 7 7 7 7 7 7 7 7 7 7 7 7 7 z x U U u = 7 z.B.",
"M.M.M.M.N.n.c...k # , , # % % % % % % # , , # w E %.=.U , 1 | z.",
"M.M.M.N.N.c.v k C Z M M Z ] ] ] ] ] ] Z M M Z O.-.$.%.U , + 1 7 ",
"M.M.N.n.v. .k s 3.u.,.;.y.h.h.h.h.h.h.y.;.;.u.u.;.! E a 9 - o . ",
"M.M.N.c.v j C 3.a.y.;.;.y.h.h.h.h.h.h.y.;.;.y.u.;.R 9 9 a p - . ",
"M.n.v. .f 0 4.h.h.u.@.>.r.y.y.y.y.y.y.r.>.@.9.9.@.N q t E E < o ",
"N.c.b f x V 8.h.h.g.9.r.>.;.;.;.;.;.;.>.r.9.g.g.9.0.B E $.Y < o ",
"N.k.7 - L ,.y.h.h.h.h.9.@.;.;.;.;.;.;.@.9.h.h.h.f.8.V U U i - . ",
"N.k.7 : U :.y.h.h.h.h.g.u.y.y.y.y.y.y.u.g.h.h.h.h.2.d , < - o . ",
"N.k.7 : U ;.w.9.g.h.h.h.h.h.h.h.h.h.h.h.h.h.h.g.u.O.w = o @ 6 7 ",
"N.k.7 : m %.;.@.u.h.h.g.g.h.h.h.h.h.h.g.g.h.h.u.@.-.E u = 1 | z.",
"N.k.7 : m $.! ^ Z 7.i.s.s.i.7.1.1.7.i.s.s.i.7.Z ^ &.$.U : 7 z.B.",
"N.k.7 : m #.) G q h ' X.X.' h % % h ' X.X.' h q G ) *.U : 7 k.B.",
"N.k.7 : m ( P A & 5 { } } { 5     5 { } } { 5 & A P ( m : 7 k.N.",
"N.k.7 : m ( P A & 5 { } } { 5     5 { } } { 5 & A P ( m : 7 k.N.",
"N.k.7 : m #.) G q h ' X.X.' h % % h ' X.X.' h q G _ *.m : 7 k.N.",
"N.k.7 : m $.! ^ o.6.p.d.d.p.7.1.1.7.p.d.d.p.6.o.^ #.$.U : 7 k.N.",
"N.k.7 : U $.$.;.r.u.y.y.q.q.y.u.u.y.q.q.y.y.u.r.;.#.E x f b c.N.",
"N.k.7 , U $.$.%.;.:.,.-.~ ~ -.,.,.-.~ ~ -.,.:.;.%.R 9 g  .v.n.M.",
"N.k.7 = u U U E #.#.! W I ) ! $.$.! ) I _ ! #.$.$.m - 7 k.B.N.M.",
"N.k.7 X = : , t E #.) I Q ( $.$.$.$.( W I I ! $.$.m : 7 k.N.N.M.",
"N.v.n 7 7 1 O - L ` P P Q ! E m m E ! ! T ~ -.;.%.U : 7 k.N.M.M.",
"M.b.c.k.k.[ 1 & F P K K P G e , , 3 J / +.t.y.e.<.U - 6 j.N.M.M.",
"M.M.N.N.B.v.n 8 y D H K K D 2 * * ; 4 c 5.f.f.8.V x l b c.N.M.M.",
"M.M.M.N.N.m.v. .8 > D K K H D S S r ; 0 4.h.h.4.d l  .v.n.M.M.M.",
"M.M.M.M.M.N.B.z.7 & A K K K K K K S * % ] h.h.] $ 7 k.B.N.M.M.M."
};
