/* XPM */
static char *_dd0ede478e34babbc3929a9138fd7c2ROVXLAkriK3YBY0A[] = {
/* columns rows colors chars-per-pixel */
"32 32 153 2 ",
"   c #0E1D1C",
".  c #141A1A",
"X  c #17211E",
"o  c #1B221E",
"O  c #23221E",
"+  c #3C231F",
"@  c #363C1C",
"#  c #393D1E",
"$  c #1C2626",
"%  c #1A2C23",
"&  c #1C2B28",
"*  c #1E3125",
"=  c #222A26",
"-  c #212F24",
";  c #3F2B22",
":  c #243427",
">  c #253728",
",  c #263828",
"<  c #3B3D20",
"1  c #3F352A",
"2  c #422C22",
"3  c #443929",
"4  c #4C3D2A",
"5  c #503B29",
"6  c #5F3D2B",
"7  c #2C422D",
"8  c #33492E",
"9  c #2B4432",
"0  c #2F4A31",
"q  c #304930",
"w  c #355536",
"e  c #385535",
"r  c #3C5C39",
"t  c #5D461E",
"y  c #45472B",
"u  c #5D4B23",
"i  c #54422D",
"p  c #5B4C2B",
"a  c #455128",
"s  c #515221",
"d  c #4B4333",
"f  c #4B4930",
"g  c #504B31",
"h  c #455E3A",
"j  c #63442E",
"k  c #6B4C31",
"l  c #775736",
"z  c #765837",
"x  c #7F5C3A",
"c  c #436A3F",
"v  c #4D723F",
"b  c #58763B",
"n  c #706B26",
"m  c #7D7A25",
"M  c #737D2E",
"N  c #323B41",
"B  c #2D4C45",
"V  c #384141",
"C  c #3A5846",
"Z  c #345B53",
"A  c #3E664F",
"S  c #376251",
"D  c #3C6451",
"F  c #3F6D51",
"G  c #5C5C49",
"H  c #70524A",
"J  c #446C40",
"K  c #5A664A",
"L  c #5F604E",
"P  c #477145",
"I  c #497344",
"U  c #45734F",
"Y  c #4D7B4D",
"T  c #507C4C",
"R  c #416F50",
"E  c #606548",
"W  c #656D4D",
"Q  c #6E7448",
"!  c #873C2C",
"~  c #9C3A2B",
"^  c #874B34",
"/  c #825F3A",
"(  c #A55A2B",
")  c #A64B32",
"_  c #B75B3F",
"`  c #82603A",
"'  c #9A663C",
"]  c #A76338",
"[  c #B3633C",
"{  c #B47B39",
"}  c #DD5D3A",
"|  c #C96331",
" . c #956E40",
".. c #9A6D46",
"X. c #9E7041",
"o. c #A37443",
"O. c #BF7442",
"+. c #BD7248",
"@. c #C1794A",
"#. c #7B8833",
"$. c #7C933C",
"%. c #4F814F",
"&. c #53834D",
"*. c #5B8648",
"=. c #5C8B4C",
"-. c #668244",
";. c #688044",
":. c #668D46",
">. c #6D8E42",
",. c #848124",
"<. c #8A8326",
"1. c #878628",
"2. c #918426",
"3. c #8F932E",
"4. c #9C9D2D",
"5. c #8C8833",
"6. c #9A8933",
"7. c #889638",
"8. c #879838",
"9. c #959A32",
"0. c #999C32",
"q. c #A78A2A",
"w. c #A88A28",
"e. c #B28D2B",
"r. c #AE932E",
"t. c #A49D28",
"y. c #A29338",
"u. c #A7A129",
"i. c #A9A229",
"p. c #C09E33",
"a. c #C2A43E",
"s. c #B78545",
"d. c #AEA854",
"f. c #C3864B",
"g. c #C6894D",
"h. c #C98B4E",
"j. c #D08F4F",
"k. c #D49351",
"l. c #DA9553",
"z. c #F18149",
"x. c #E69646",
"c. c #C1B257",
"v. c #F2A559",
"b. c #F5A65A",
"n. c #FFAD5D",
"m. c #FFB25F",
"M. c #E28B65",
"N. c #E5A664",
"B. c #FFB460",
"V. c #888B93",
"C. c #B2AF99",
"Z. c #C6A79F",
"A. c #E3C9A4",
/* pixels */
"n.n.n.n.n.n.n.n.n.n.n.n.n.n.n.n.n.n.n.n.n.n.n.n.m.m.m.m.m.m.n.n.",
"n.n.n.n.n.n.n.n.n.n.n.n.n.n.n.n.n.n.n.n.n.m.m.b.l.h.h.h.h.l.v.n.",
"n.n.n.n.n.n.n.n.n.m.m.m.m.m.m.m.m.m.m.m.m.m.B.l./ i i i i ` l.m.",
"n.n.n.n.n.n.n.b.k.g.g.h.h.h.h.h.h.h.h.h.h.h.h.o.f > > - X i h.B.",
"n.n.n.n.n.n.m.l.x i i i i i i i i i i i i i i g h c c w % 5 h.B.",
"n.n.n.n.n.b.l.o.p # # < < < < < < < < < < # # a I &.&.c * 3 X.k.",
"n.n.n.n.m.l.x p n m m m m m m m m m m m m m m M *.&.=.J : O 4 p ",
"n.n.n.b.l.o.p s 1.t.t.t.t.t.t.t.t.t.t.t.t.t.t.9.:.&.I r 7 - o o ",
"n.n.m.l.x p n 1.4.i.i.u.u.u.u.u.u.u.u.u.u.i.i.9.:.P 0 7 r e - . ",
"n.b.l.o.f a 1.u.i.i.i.i.i.i.i.i.i.i.i.i.i.i.i.0.$.b 8 q I J > . ",
"m.l./ f h b 3.i.i.i.i.i.i.i.i.i.i.i.i.i.i.i.i.u.0.#.b I &.J , . ",
"m.g.i : c >.0.i.i.i.i.i.i.i.i.i.i.i.i.i.i.i.i.i.i.3.b J J r - . ",
"m.g.4 * J :.0.i.i.i.i.i.i.i.i.i.i.i.i.i.i.i.i.i.i.1.a > , : X . ",
"m.g.4 * J :.8.4.u.i.i.i.i.i.i.u.u.i.i.i.i.i.i.u.4.#.a % X = 1 4 ",
"m.g.4 * c =.:.$.4.i.i.i.i.i.i.u.u.i.i.i.i.i.i.4.$.-.v w % 1 ' f.",
"m.g.4 * c &.&.;.6.w.2.,.,.2.q.e.e.q.2.,.,.2.w.6.;.T &.c * 4 f.n.",
"m.g.4 * c &.R E ] ( t @ # u ( | | ( u # @ t ( ] E R %.c * 4 g.m.",
"m.g.4 * c Y D G _ _ H V $ 2 ) } } ) 2 $ V H _ _ G D Y c * 4 g.m.",
"m.g.4 * c Y D L +.M.Z.V.N 2 [ z.z.[ 2 N V.Z.M.+.L D Y c * 4 g.m.",
"m.g.4 * c %.F W s.N.A.C.G u { x.x.{ u G C.A.N.s.W F %.c * 4 g.m.",
"m.g.4 * J &.Y -.y.a.c.d.5.<.r.p.p.r.<.5.d.c.a.y.-.Y &.J * 4 g.m.",
"m.k.l y h I &.:.7.0.0.0.9.9.9.0.0.9.9.9.0.0.0.7.:.&.I h y l k.m.",
"n.v.j. .f 0 I =.:.>.>.>.>.>.>.>.>.>.>.>.>.>.>.:.=.I 0 f  .j.v.n.",
"n.n.n.f.4 % w I Y T T T T T T T T T T T T T T Y I w % 4 f.n.n.n.",
"n.m.m.h.4   % 9 C D D A D D D D D D D D A D D C 9 %   4 h.m.m.n.",
"n.b.l.o.6 + + 1 C D Z Z S D D D D D D S Z Z D C 1 + + 6 o.l.b.n.",
"m.l.` j ! ~ ~ ^ K U S S U Y Y Y Y Y Y U S S U K ^ ~ ~ ! j ` l.m.",
"m.g.i ; ) } } [ Q U S S U Y I J J I Y U S S U Q [ } } ) ; i g.m.",
"m.f.3 ; [ z.z.@.W S Z Z D C 9 , , 9 C D Z Z S W @.z.z.[ ; 3 f.m.",
"m.k.z j ' O.O...K Z Z Z Z B & . . & B Z Z Z Z K ..O.O.' j z k.m.",
"n.v.j.o.k 5 5 d C Z Z Z Z B & . . & B Z Z Z Z C d 5 5 k o.j.v.n.",
"n.n.n.f.i . . = B Z Z Z Z B & . . & B Z Z Z Z B = . . i f.n.n.n."
};
