/* XPM */
static char *_8916cc5a26e408fdcc812fc5eaebeabPvsyqbxNuJtS7eXX[] = {
/* columns rows colors chars-per-pixel */
"32 32 194 2 ",
"   c #0C1419",
".  c #0F1919",
"X  c #111A1A",
"o  c #191F1C",
"O  c #2B1E1E",
"+  c #1F201E",
"@  c #1E2E1D",
"#  c #26291E",
"$  c #27331F",
"%  c #231D22",
"&  c #272025",
"*  c #292125",
"=  c #2D2B21",
"-  c #352B24",
";  c #3C2D27",
":  c #2D3920",
">  c #3B3024",
",  c #343921",
"<  c #3D3F25",
"1  c #472827",
"2  c #582A23",
"3  c #463428",
"4  c #463A29",
"5  c #4A3B2A",
"6  c #5A3627",
"7  c #533728",
"8  c #513929",
"9  c #452931",
"0  c #582C34",
"q  c #522C38",
"w  c #582E3C",
"e  c #5B3A36",
"r  c #5B323B",
"t  c #6D3226",
"y  c #683428",
"u  c #723126",
"i  c #74392A",
"p  c #7C3B2B",
"a  c #64363F",
"s  c #68343E",
"d  c #653E3A",
"f  c #324521",
"g  c #3A4520",
"h  c #3C5123",
"j  c #444A25",
"k  c #484A27",
"l  c #4E4728",
"z  c #54422D",
"x  c #5B472E",
"c  c #524A2A",
"v  c #4A5627",
"b  c #4D5728",
"n  c #555328",
"m  c #5A4231",
"M  c #6B462F",
"N  c #76462F",
"B  c #634D31",
"V  c #694C34",
"C  c #734D31",
"Z  c #754935",
"A  c #7C4A31",
"S  c #6B5432",
"D  c #6A5C31",
"F  c #715335",
"G  c #775936",
"H  c #7C573B",
"J  c #456325",
"K  c #4D6626",
"L  c #566A27",
"P  c #526329",
"I  c #5A6D2B",
"U  c #577C28",
"Y  c #5B7C29",
"T  c #646E27",
"R  c #63632E",
"E  c #6D602F",
"W  c #656829",
"Q  c #696B2B",
"!  c #6E702B",
"~  c #74752D",
"^  c #727F29",
"/  c #6B6331",
"(  c #746631",
")  c #7F6337",
"_  c #746830",
"`  c #7F6937",
"'  c #673740",
"]  c #6D3545",
"[  c #743746",
"{  c #7B3746",
"}  c #743749",
"|  c #743848",
" . c #7A384C",
".. c #893A2B",
"X. c #943D2C",
"o. c #9A3E2D",
"O. c #8B3B3D",
"+. c #9E3F33",
"@. c #A13E33",
"#. c #84412D",
"$. c #89422E",
"%. c #92402E",
"&. c #9B402E",
"*. c #864D34",
"=. c #835E39",
"-. c #8C5C38",
";. c #945539",
":. c #AC422E",
">. c #B0422F",
",. c #AA4635",
"<. c #B64430",
"1. c #BB4633",
"2. c #BC473E",
"3. c #A15B3D",
"4. c #B75339",
"5. c #85633A",
"6. c #886539",
"7. c #826A38",
"8. c #89693A",
"9. c #96683E",
"0. c #946B3E",
"q. c #97733D",
"w. c #C14733",
"e. c #C54A34",
"r. c #CC4A35",
"t. c #C1473C",
"y. c #C5493A",
"u. c #C94939",
"i. c #D24B34",
"p. c #803843",
"a. c #843B4D",
"s. c #963E4D",
"d. c #853B51",
"f. c #8A3C53",
"g. c #933F54",
"h. c #993F50",
"j. c #9C404F",
"k. c #974052",
"l. c #994051",
"z. c #A14044",
"x. c #AC4346",
"c. c #A4424B",
"v. c #A94349",
"b. c #B44543",
"n. c #BA4641",
"m. c #956840",
"M. c #9C6E41",
"N. c #9D7241",
"B. c #A57443",
"V. c #AA7644",
"C. c #A77944",
"Z. c #AB7945",
"A. c #B17D47",
"S. c #B37D48",
"D. c #5D8529",
"F. c #5F892A",
"G. c #618C2A",
"H. c #78862D",
"J. c #7E8B2B",
"K. c #67952B",
"L. c #6C932C",
"P. c #79922D",
"I. c #71A22D",
"U. c #828D2C",
"Y. c #89952D",
"T. c #8A992D",
"R. c #839233",
"E. c #999B34",
"W. c #A19F36",
"Q. c #95A32E",
"!. c #98A52F",
"~. c #9DAD2F",
"^. c #A4B430",
"/. c #AABB31",
"(. c #B58048",
"). c #BD844A",
"_. c #C1874B",
"`. c #C5894C",
"'. c #CD8E4F",
"]. c #D28F4F",
"[. c #D39250",
"{. c #DB9652",
"}. c #DE9854",
"|. c #E49C55",
" X c #E89F57",
".X c #EBA057",
"XX c #EEA258",
"oX c #F2A559",
"OX c #F7A85B",
"+X c #F8A95B",
"@X c #FDAC5C",
"#X c #FFAD5D",
"$X c #FFB15F",
"%X c #FFB360",
/* pixels */
"#X#X#X#X$X{.5.4 + + 4 5.{.$X#X#X#X#X$XXX_.=.-     3 C.|.+X#X#X#X",
"#X#X#XOX|.).5.c , , c 5._. X+X#X#X#XoX{.Z.G < @ @ k 0.'.|.+X#X#X",
"#X#X#X}.B.) _ Q T T Q _ 8.Z.|.#X$XoX'.V.7.R P J J P / 0.`.|.+X#X",
"#X#X#X'.F l Q J.Y.T.U.~ E 6._.|.|.[.C.7.R I Y G.G.Y b S V.{.OX#X",
"#X#X#X_.z , T Y.~.^.Q.U.! ( 0.B.V.N.` / I U K.I.I.D.h c M.[.oX#X",
"#X#X#X_.z , T T.^./.^.Q.J.~ ( G G D R I U G.K.I.I.D.h c q.[.oX#X",
"#X#X#X'.F l Q U.Q.^./.^.~.U.W n k v L Y G.K.G.F.F.Y b S V.{.OX#X",
"#X#X#X}.B.) _ ~ U.Q.^././.Q.^ L K K U F.G.D.K J J P / 0.`.|.+X#X",
"#X#X#XOX|.).8.E ! J.!.^.^.~.!.T.P.L.L.G.U J f $ : c q.'. X+X#X#X",
"#X#X#X#X$X XZ.6.( ~ H.J.J.Y.E.W.E.R.H.Y J f # = 5 =.`.XX#X#X#X#X",
"#X#X#X#X#X+X|._.q.D k g j n 7.q.q.7.D k : # = z M.]..X+X#X#X#X#X",
"#X#X#X#X#X#X#X|.C.S > # - 6 *.3.3.;.N 7 - # - S '.#X#X#X#X#X#X#X",
"#X#X#X#X#X#X$X|.V.F 3 1 t %.,.4.4.4.,...y 1 > S [.$X#X#X#X#X#X#X",
"#X#X#X#X#X#XoX[.M.C 6 t o.1.e.e.e.e.1.:...t 7 C )..XOX#X#X#X#X#X",
"#X#X#X#X#XoX'.V.-.A p X.<.r.r.r.r.r.r.w.:.X.p N 6.A.{.OX#X#X#X#X",
"#X#X#X#XoX[.V.-.*.$.&.<.e.i.i.i.i.i.i.r.w.:.&.#.Z =.).|.oX#X#X#X",
"#X#X#XXX[.Z.-.A $.&.<.e.r.i.i.i.i.i.i.i.r.e.<.o.i M 0.).}.oX#X#X",
"#X#X#X}.N.H N #.o.>.e.i.i.i.i.i.i.i.i.i.i.r.e.:...i A 0._.|.+X#X",
"#X#X#X`.B 3 i &.1.e.r.i.i.i.i.i.i.i.i.i.r.r.u.w.1.o.y M B.[.oX#X",
"#X#X#X).4 O u :.e.i.i.i.i.i.i.i.i.i.i.r.u.y.2.y.i.:.2 8 0.'.oX#X",
"#X#X#X).4 O u :.e.i.i.i.i.i.i.i.i.i.i.r.t.b.x.b.u.:.2 8 0.'.oX#X",
"#X#X#X).5 O y +.1.r.r.u.y.u.r.r.u.u.u.y.2.x.j.c.n.@.2 8 0.'.oX#X",
"#X#X#X).5 % 0 O.,.t.y.2.b.b.y.u.2.b.2.2.2.x.j.l.c.O.1 5 0.'.oX#X",
"#X#X#X).4 % q p.z.b.n.b.c.c.2.2.x.c.x.b.b.x.l.g.k.{ 9 3 0.'.oX#X",
"#X#X#X).4 % q { s.c.v.c.h.j.v.x.j.j.c.c.c.c.h.g.g.} 9 3 0.'.oX#X",
"#X#X#X`.x - q [ a.h.j.l.g.h.j.j.h.h.h.l.l.k.g.f.d.] 9 m M.[.oX#X",
"#X#X#X[.5.m e s } a.f.g.g.g.g.g.g.g.g.g.k.g.f. .] a e H S.}.OX#X",
"#X#X#X|.(.6.Z d ' } d.f.f.f.f.f.f.f.f.f.f.f.a.| r e H B.'..X+X#X",
"#X#X#X+X.X`.0.Z d ' }  . . . . . . . . . . .| a e V C.[.XX+X#X#X",
"#X#X#X#X$XXX).m.H d r w w w w w w w w w w r r d F 0.'.oX#X#X#X#X",
"#X#X#X#X#X#XXX'.M.V ; & & & & & & & & & & * ; V S.|.oX#X#X#X#X#X",
"#X#X#X#X#X#X$X XV.S = . . X X X X X X X X o = F [.%X$X#X#X#X#X#X"
};
