/* XPM */
static char *_8377487f1d54b0687d307e84727493dODEPOwW6gvxE8mdk[] = {
/* columns rows colors chars-per-pixel */
"32 32 183 2 ",
"   c #081317",
".  c #0E1719",
"X  c #141B1B",
"o  c #181D1B",
"O  c #1F221E",
"+  c #22231E",
"@  c #1C2322",
"#  c #252A27",
"$  c #362E23",
"%  c #3D3325",
"&  c #3E362A",
"*  c #3D3C2F",
"=  c #443626",
"-  c #463927",
";  c #493927",
":  c #403728",
">  c #443C2B",
",  c #4C3C29",
"<  c #473F34",
"1  c #46412E",
"2  c #4B422D",
"3  c #53422D",
"4  c #50482F",
"5  c #5B482F",
"6  c #4A4531",
"7  c #4E4834",
"8  c #4F4D3D",
"9  c #564E36",
"0  c #64492F",
"q  c #6A4B2F",
"w  c #654D32",
"e  c #6A4D30",
"r  c #655335",
"t  c #6B5636",
"y  c #6A5639",
"u  c #6F5938",
"i  c #725131",
"p  c #7C5A36",
"a  c #725C3A",
"s  c #7E5D38",
"d  c #74643E",
"f  c #434A4C",
"g  c #4E504D",
"h  c #555549",
"j  c #4E5251",
"k  c #545651",
"l  c #505758",
"z  c #545B5C",
"x  c #5A5F5E",
"c  c #766540",
"v  c #7C6B43",
"b  c #6B6353",
"n  c #696556",
"m  c #6F6954",
"M  c #6C6A5C",
"N  c #716656",
"B  c #716C5C",
"V  c #7A7564",
"C  c #845C36",
"Z  c #805E3A",
"A  c #8B5F38",
"S  c #87623A",
"D  c #8C6139",
"F  c #94653A",
"G  c #9B6739",
"H  c #93693E",
"J  c #9E6B3D",
"K  c #A16D3D",
"L  c #A4713F",
"P  c #AA713F",
"I  c #9B6E40",
"U  c #847047",
"Y  c #957C4C",
"T  c #997F4C",
"R  c #A17342",
"E  c #AC7340",
"W  c #AC7A46",
"Q  c #A6794A",
"!  c #B17541",
"~  c #B57842",
"^  c #B97A43",
"/  c #857F6D",
"(  c #9A865A",
")  c #9F8859",
"_  c #A4854F",
"`  c #AB864D",
"'  c #B78149",
"]  c #BC8349",
"[  c #A98650",
"{  c #AA8C57",
"}  c #BA8F53",
"|  c #AE9157",
" . c #B19256",
".. c #B99156",
"X. c #B49559",
"o. c #BC9B5B",
"O. c #AF8865",
"+. c #BEA779",
"@. c #C68145",
"#. c #CB8447",
"$. c #C3874B",
"%. c #CD8548",
"&. c #C7894D",
"*. c #CA8C4E",
"=. c #D58A4A",
"-. c #D98C4B",
";. c #D2904F",
":. c #C29D5C",
">. c #D49251",
",. c #DB9652",
"<. c #DD9953",
"1. c #D49658",
"2. c #E1944F",
"3. c #E29D56",
"4. c #C5A25F",
"5. c #E2A35C",
"6. c #EDA158",
"7. c #E4AA5F",
"8. c #F2A459",
"9. c #F7A85B",
"0. c #FFAD5D",
"q. c #FFB15F",
"w. c #D99E69",
"e. c #C7A461",
"r. c #CAA661",
"t. c #CFAA63",
"y. c #D0AB64",
"u. c #DBAC62",
"i. c #DEB569",
"p. c #C2AB7B",
"a. c #DFAC79",
"s. c #E3A763",
"d. c #E5AC61",
"f. c #E5B164",
"g. c #EAB466",
"h. c #E8B768",
"j. c #E3B96B",
"k. c #ECBB6B",
"l. c #FFB360",
"z. c #E5AA74",
"x. c #EABD7D",
"c. c #EEC16F",
"v. c #EFC270",
"b. c #F2C571",
"n. c #F6C873",
"m. c #F6CA79",
"M. c #7E8384",
"N. c #9B9C9A",
"B. c #A3A29E",
"V. c #A9AAA5",
"C. c #BEB2A4",
"Z. c #BBBDBD",
"A. c #C9B182",
"S. c #D1B989",
"D. c #C3BCAB",
"F. c #EEC382",
"G. c #EBC78C",
"H. c #F0C281",
"J. c #F7D38D",
"K. c #EECD90",
"L. c #F0CF91",
"P. c #F5D396",
"I. c #F7D698",
"U. c #F9D798",
"Y. c #F0D2AF",
"T. c #F7DCB7",
"R. c #F6DFB9",
"E. c #FDE8BF",
"W. c #C6C7C6",
"Q. c #C7C8C7",
"!. c #C6C9C9",
"~. c #CACCCC",
"^. c #D0CFCA",
"/. c #D8D5CD",
"(. c #D7D7D7",
"). c #F4E1CD",
"_. c #EEE5D5",
"`. c #F0E7D5",
"'. c #FAECD5",
"]. c #FBEFD9",
"[. c #FEF2DB",
"{. c #F6F5F3",
"}. c #FEFEFE",
/* pixels */
"0.0.0.0.q.q.q.q.q.q.q.q.q.q.q.q.0.0.0.0.0.0.0.0.0.0.0.0.0.0.0.0.",
"0.0.0.9.,.*.*.*.*.*.*.*.*.&.&.>.8.0.0.0.0.0.0.0.0.0.0.0.0.0.0.0.",
"0.0.q.<.S 5 3 3 3 3 3 3 3 3 3 s ;.0.0.0.0.0.0.0.0.0.0.0.0.0.0.0.",
"q.9.,.W e ; = - 2 2 2 2 2 2 2 r R =.8.0.0.0.0.0.0.0.0.0.0.0.0.0.",
"l.,.S e A G G L `  . . . . . .T t p ;.0.0.0.0.0.0.0.0.0.0.0.0.0.",
"*.W u u W 1.w.a.G.K.K.K.K.L.P.A.V b Q >.8.0.0.0.0.0.0.0.0.0.0.0.",
"3 t Y o.u.x.Y.).'.].].].].].[._.^.B.N Z *.9.0.0.0.0.0.0.0.0.0.0.",
"X > _ d.g.F.T.'.].].].].].].].[.[.D.k 3 ] 9.0.0.0.0.0.0.0.0.0.0.",
". : R ,.<.s.F.P.P.P.P.P.P.P.P.I.U.+.8 2 ] 9.0.0.0.0.0.0.0.0.0.0.",
". : R ,.<.s.F.P.P.P.P.P.P.P.P.U.U.+.8 2 ' 9.0.0.0.0.0.0.0.0.0.0.",
". > [ f.g.F.R.'.].[.[.[.[.[.[.[.[.D.k 2 ' 9.0.0.0.0.0.0.0.0.0.0.",
". > [ f.g.F.R.].[.`./.Q.Q.W.W.(.{.!.z 3 ] 0.0.0.0.0.0.0.0.0.0.0.",
". : R ,.<.s.F.I.U.S./ x z l j M.(.!.z 3 ] 0.q.q.q.q.q.0.0.0.0.0.",
". : R ,.<.5.k.m.J.p.h # * 6 6 n V.N.f & H $.&.&.&.&.&.>.8.0.0.0.",
". > [ f.g.h.k.J.E.D.k * U | X.) B f # O & 3 3 3 3 3 , p ;.0.0.0.",
". > [ f.g.g.g.H.T.C.g 6 | k.c.e.v 7 1 1 2 6 6 6 6 6 6 r R ;.8.0.",
". : R ,.<.<.<.5.z.O.< 6 X.v.b.j.4.X. . . .X.X.X.X.X.X.T t s ;.0.",
"  & R ,.<.<.<.<.,.~ e 5 Y 4.j.v.c.k.k.c.v.j.4.X.X.4.j.e.v a W &.",
"  > [ f.g.g.g.d.<.%.! S w c 4.c.b.b.b.b.n.t.v 4 2 d 4.j.r._ a 5 ",
"- r T :.u.g.g.d.,.-.=.! t d :.c.b.b.b.k.y.{ m j j n ) o.o.Y 1 O ",
"] R a a ' <.<.,.-.=.-.*.} :.i.v.b.b.b.r.v m N.Z.Z.B.B 9 9 1 # X ",
"0.&.3 ; K =.-.-.=.=.=.,.f.k.v.b.b.b.n.o.4 j Z.}.}.Q.x @ X X X X ",
"q.&.3 : K =.-.=.=.=.=.<.g.b.b.b.b.b.n.o.2 j Z.}.}.~.z X X X X X ",
"q.>.s 0 A ! #.-.-.=.=.,.7.k.c.b.b.b.n.r.d n B.!.~.V.M 6 > $ + X ",
"0.8.>.R 0 q ! =.-.=.=.-.,.5.k.b.b.b.b.j.4.) M z z M ( { Q p % o ",
"0.0.0.;.p 0 A ! #.-.-.=.=.,.d.g.k.k.k.k.g.:.a > : y ..7.<.L ; X ",
"0.0.0.8.;.R 0 q ! =.-.=.=.-.<.3.3.3.3.3.3.;.! J J E *.3.2.P ; X ",
"0.0.0.0.0.;.p 0 D ! #.-.-.%.^ E E P P ! #.=.=.=.=.#.^ E P F 0 , ",
"0.0.0.0.0.8.=.R w e ! -.-.^ i , ; ; - q E =.=.-.-.^ i ; = 0 I ' ",
"0.0.0.0.0.0.0.>.Z e D ! %.^ i & + + $ 0 P =.-.%.^ F e 3 , p *.9.",
"0.0.0.0.0.0.0.8.>.R e e E @.! C % $ i P @.-.-.^ i e I ' ' *.6.0.",
"0.0.0.0.0.0.0.0.0.$.3 ; K =.=.K = : G %.=.-.-.P , 3 ' 8.9.9.0.0."
};
