/* XPM */
static char *_6c734f4b5984b7d84c437ecca493b47l8uAnEImkYLtWzFq[] = {
/* columns rows colors chars-per-pixel */
"32 32 64 1 ",
"  c #121A1A",
". c #222626",
"X c #3F3D3E",
"o c #4F494B",
"O c #403D3E",
"+ c #212525",
"@ c #101818",
"# c #111919",
"$ c #403D3F",
"% c #131A1A",
"& c #504A4C",
"* c #141B1B",
"= c #4F484B",
"- c #444041",
"; c #2D2E2F",
": c #1C2222",
"> c #151C1C",
", c #1D2223",
"< c #171D1D",
"1 c #222627",
"2 c #413E3F",
"3 c #514A4C",
"4 c #4E484A",
"5 c #4B4648",
"6 c #444042",
"7 c #343435",
"8 c #1D2222",
"9 c #212526",
"0 c #353435",
"q c #1E2323",
"w c #121A19",
"e c #121919",
"r c #524B4D",
"t c #454142",
"y c #4C4648",
"u c #514B4D",
"i c #514A4D",
"p c #423E40",
"a c #232627",
"s c #1F2324",
"d c #353536",
"f c #131B1A",
"g c #2D2F2F",
"h c #171E1E",
"j c #1E2223",
"k c #413E40",
"l c #161C1C",
"z c #2D2F30",
"x c #161D1D",
"c c #222526",
"v c #353436",
"b c #534C4E",
"n c #181E1E",
"m c #1F2424",
"M c #363637",
"N c #363537",
"B c #232727",
"V c #433F41",
"C c #474244",
"Z c #2F3031",
"A c #423F40",
"S c #464243",
"D c #423F41",
"F c white",
/* pixels */
" .XooooO+@#.$ooooO+#%%%.$&&$.%%*",
" .$&o=o-;:>.Ooooo-;,<% 123321%%*",
" .$&o4456789Xoo44560qwe12rr21%%*",
"%q0tyoo&u29+O&o44oipaewsdppds%f*",
"*<,gt&&&u29+$&o44oipa %hsaash***",
"*%ejdk2$$7887tyooytdq%f*%%%%****",
"**%<q11.98l>8ztiitgj<***%%%%****",
"****%  x8c1j>8vppdje%***********",
"****% wq0kkdjlqaaq<%************",
"*****%%apbbpa w%%%****%%********",
"*****%%apbbpa  %%%****%%********",
"*****%%sdppds%%******nms<%%%****",
"*******hsaash******%%mMNqee%****",
"********%%%%*******%%BVCZ.amn***",
"********%%%%*******%%aA4SpAMs%%*",
"*******************%%sdkpADMs%%*",
"*********************hsaBBBmn***",
"**********************%%%%%%****",
"**********************%%%%%%****",
"********************************",
"********************************",
"********************************",
"********************************",
"********************************",
"********************************",
"********************************",
"********************************",
"********************************",
"********************************",
"********************************",
"********************************",
"********************************"
};
